<?xml version="1.0" encoding="utf-8"?>
<svg viewBox="-4.71 -7.759 122.579 46.367" fill="none" xmlns="http://www.w3.org/2000/svg" xmlns:bx="https://boxy-svg.com">
  <defs>
    <style bx:fonts="Afacad">@import url(https://fonts.googleapis.com/css2?family=Afacad%3Aital%2Cwght%400%2C400%3B0%2C500%3B0%2C600%3B0%2C700%3B1%2C400%3B1%2C500%3B1%2C600%3B1%2C700&amp;display=swap);</style>
    <style bx:fonts="Sen">@import url(https://fonts.googleapis.com/css2?family=Sen%3Aital%2Cwght%400%2C400%3B0%2C500%3B0%2C600%3B0%2C700%3B0%2C800&amp;display=swap);</style>
  </defs>
  <path fill-rule="evenodd" clip-rule="evenodd" d="M 5.077 23.564 L 3.844 23.564 C 2.825 23.564 1.996 22.651 1.996 21.526 L 1.996 7.224 C 1.996 6.098 2.825 5.186 3.844 5.186 L 4.874 5.186 C 5.895 5.186 6.722 6.098 6.722 7.224 L 6.722 21.75 C 6.722 22.752 5.986 23.564 5.077 23.564 Z" fill="white" style="" transform="matrix(1, 0, 0, 1, -3.552713678800501e-15, 0)"/>
  <path fill-rule="evenodd" clip-rule="evenodd" d="M 29.271 29.816 L 28.04 29.816 C 27.019 29.816 26.191 28.976 26.191 27.939 L 26.191 1.701 C 26.191 0.664 27.019 -0.177 28.04 -0.177 L 29.068 -0.177 C 30.089 -0.177 30.917 0.664 30.917 1.701 L 30.917 28.144 C 30.917 29.068 30.18 29.816 29.271 29.816 Z" fill="white" style="" transform="matrix(1, 0, 0, 1, -3.552713678800501e-15, 0)"/>
  <path fill-rule="evenodd" clip-rule="evenodd" d="M 12.88 29.912 L 11.648 29.912 C 10.627 29.912 9.8 29.077 9.8 28.048 L 9.8 1.998 C 9.8 0.968 10.627 0.134 11.648 0.134 L 12.677 0.134 C 13.698 0.134 14.525 0.968 14.525 1.998 L 14.525 28.253 C 14.525 29.169 13.788 29.912 12.88 29.912 Z" fill="white" style="" transform="matrix(1, 0, 0, 1, -3.552713678800501e-15, 0)"/>
  <path fill-rule="evenodd" clip-rule="evenodd" d="M 37.657 23.536 L 36.426 23.536 C 35.405 23.536 34.578 22.609 34.578 21.466 L 34.578 6.933 C 34.578 5.79 35.405 4.863 36.426 4.863 L 37.455 4.863 C 38.476 4.863 39.303 5.79 39.303 6.933 L 39.303 21.692 C 39.303 22.711 38.567 23.536 37.657 23.536 Z" fill="white" style="" transform="matrix(1, 0, 0, 1, -3.552713678800501e-15, 0)"/>
  <path fill-rule="evenodd" clip-rule="evenodd" d="M 20.264 34.227 L 19.021 34.227 C 17.991 34.227 17.155 32.922 17.155 31.315 L 17.155 11.459 C 17.155 9.852 17.991 8.549 19.021 8.549 L 20.059 8.549 C 21.089 8.549 21.925 9.852 21.925 11.459 L 21.925 31.634 C 21.925 33.066 21.181 34.227 20.264 34.227 Z" fill="white" style="" transform="matrix(1, 0, 0, 1, -3.552713678800501e-15, 0)"/>
  <text style="fill: rgb(214, 214, 214); font-family: Arial, sans-serif; font-size: 3.3px; white-space: pre;" y="10.763999938964844" transform="matrix(0.9909120202064514, 0, 0, 0.9749600291252136, 0.9697820544242823, 0.7489929795265198)"><tspan x="41.316001892089844" dy="1em">​</tspan></text>
  <text style="fill: rgb(255, 255, 255); font-family: Afacad; font-size: 10px; stroke-miterlimit: 3.81; stroke-width: 0px; text-anchor: middle; white-space: pre;" transform="matrix(1, 0, 0, 1, -7.633160114288334, 1)"><tspan x="56.3" y="15.392">                                  </tspan><tspan style="font-family: Sen;">Aurora escort</tspan><tspan>         </tspan><tspan x="56.29999923706055" dy="1em">​</tspan><tspan x="56.29999923706055" dy="1em">​</tspan></text>
  <text style="white-space: pre; fill: rgb(51, 51, 51); font-family: Arial, sans-serif; font-size: 3.2px;" x="53.685" y="17.908" transform="matrix(0.9909120202064514, 0, 0, 0.9749600291252136, 0.9697820544242823, 0.7489929795265198)"><tspan x="53.685001373291016" dy="1em">​</tspan></text>
  <text style="white-space: pre; fill: rgb(51, 51, 51); font-family: Arial, sans-serif; font-size: 3.2px;" x="36.426" y="11.631" transform="matrix(0.9909120202064514, 0, 0, 0.9749600291252136, 0.9697820544242823, 0.7489929795265198)"><tspan x="36.42599868774414" dy="1em">​</tspan><tspan x="36.42599868774414" dy="1em">​</tspan></text>
  <text style="white-space: pre; fill: rgb(51, 51, 51); font-family: Arial, sans-serif; font-size: 3.2px;" x="56.942" y="21.968" transform="matrix(0.9909120202064514, 0, 0, 0.9749600291252136, 0.9697820544242823, 0.7489929795265198)"><tspan x="56.94200134277344" dy="1em">​</tspan></text>
  <text style="white-space: pre; fill: rgb(51, 51, 51); font-family: Arial, sans-serif; font-size: 3.2px;" x="19.205" y="18.741" transform="matrix(0.9909120202064514, 0, 0, 0.9749600291252136, 2.8468909263610804, 0.8817369341850281)"><tspan x="19.204999923706055" dy="1em">​</tspan><tspan x="19.204999923706055" dy="1em">​</tspan></text>
  <text style="white-space: pre; fill: rgb(51, 51, 51); font-family: Arial, sans-serif; font-size: 3.2px;" x="18.324" y="13.995" transform="matrix(0.9909120202064514, 0, 0, 0.9749600291252136, 0.9697820544242823, 0.7489929795265198)"> </text>
  <text style="white-space: pre; fill: rgb(51, 51, 51); font-family: Arial, sans-serif; font-size: 3.2px;" x="82.326" y="13.366" transform="matrix(0.9909120202064514, 0, 0, 0.9749600291252136, 0.9697820544242823, 0.7489929795265198)"><tspan x="82.32599639892578" dy="1em">​</tspan><tspan x="82.32599639892578" dy="1em">​</tspan></text>
  <text style="white-space: pre; fill: rgb(255, 255, 255); stroke-width: 0px; font-family: Afacad; font-size: 1.5px;" x="106.707" y="0.097" transform="matrix(0.9909120202064514, 0, 0, 0.9749600291252136, 0.9697820544242823, 0.7489929795265198)"><tspan x="106.70700073242188" dy="1em">​</tspan><tspan x="106.70700073242188" dy="1em">​</tspan></text>
  <text style="white-space: pre; fill: rgb(255, 255, 255); stroke-width: 0px; font-family: Afacad; font-size: 2.3px;" x="72.966" y="19.849" transform="matrix(0.9909120202064514, 0, 0, 0.9749600291252136, 0.9697820544242823, 0.7489929795265198)"><tspan x="72.96600341796875" dy="1em">​</tspan></text>
  <text style="white-space: pre; fill: rgb(255, 255, 255); stroke-width: 0px; font-family: Afacad; font-size: 2.3px;" x="58.318" y="22.598" transform="matrix(0.9909120202064514, 0, 0, 0.9749600291252136, 0.9697820544242823, 0.7489929795265198)"><tspan x="58.31800079345703" dy="1em">​</tspan><tspan x="58.31800079345703" dy="1em">​</tspan></text>
  <text style="white-space: pre; fill: rgb(255, 255, 255); stroke-width: 0px; font-family: Afacad; font-size: 2.3px;" x="75.172" y="21.839" transform="matrix(0.9909120202064514, 0, 0, 0.9749600291252136, 0.9697820544242823, 0.7489929795265198)"> </text>
  <text style="white-space: pre; fill: rgb(255, 255, 255); stroke-width: 0px; font-family: Afacad; font-size: 2.3px;" x="77.158" y="24.797" transform="matrix(1, 0, 0, 1, -3.552713678800501e-15, 0)"><tspan x="77.15799713134766" dy="1em">​</tspan><tspan x="77.15799713134766" dy="1em">​</tspan></text>
  <text style="white-space: pre; fill: rgb(255, 255, 255); stroke-width: 0px; font-family: Afacad; font-size: 2.3px;" x="20.31" y="1.484" transform="matrix(0.9909120202064514, 0, 0, 0.9749600291252136, 0.9697820544242823, 0.7489929795265198)"><tspan x="20.309999465942383" dy="1em">​</tspan><tspan x="20.309999465942383" dy="1em">​</tspan></text>
  <text style="white-space: pre; fill: rgb(255, 255, 255); stroke-width: 0px; font-family: Afacad; font-size: 2.3px;" x="60.319" y="30.763" transform="matrix(1, 0, 0, 1, -3.552713678800501e-15, 0)"><tspan x="60.319000244140625" dy="1em">​</tspan><tspan x="60.319000244140625" dy="1em">​</tspan></text>
  <text style="white-space: pre; fill: rgb(255, 255, 255); stroke-width: 0px; font-family: Afacad; font-size: 1px;" x="77.518" y="23.031" transform="matrix(0.9909120202064514, 0, 0, 0.9749600291252136, 0.9697820544242823, 0.7489929795265198)"><tspan x="77.51799774169922" dy="1em">​</tspan><tspan x="77.51799774169922" dy="1em">​</tspan></text>
  <text style="white-space: pre; fill: rgb(255, 255, 255); stroke-width: 0px; font-family: Afacad; font-size: 2.2px;" x="59.488" y="5.206" transform="matrix(0.9909120202064514, 0, 0, 0.9749600291252136, 0.9697820544242823, 0.7489929795265198)"><tspan x="59.487998962402344" dy="1em">​</tspan><tspan x="59.487998962402344" dy="1em">​</tspan></text>
  <text style="white-space: pre; fill: rgb(255, 255, 255); stroke-width: 0px; font-family: Afacad; font-size: 2.2px;" x="41.903" y="3.786" transform="matrix(0.9909120202064514, 0, 0, 0.9749600291252136, 0.9697820544242823, 0.7489929795265198)"><tspan x="41.90299987792969" dy="1em">​</tspan><tspan x="41.90299987792969" dy="1em">​</tspan></text>
  <text style="white-space: pre; fill: rgb(255, 255, 255); stroke-width: 0px; font-family: Afacad; font-size: 2.8px;" x="71.584" y="28.117" transform="matrix(1, 0, 0, 1, -3.552713678800501e-15, 0)"><tspan x="71.58399963378906" dy="1em">​</tspan><tspan x="71.58399963378906" dy="1em">​</tspan></text>
  <text style="white-space: pre; fill: rgb(255, 255, 255); stroke-width: 0px; font-family: Afacad; font-size: 1.7px;" x="81.797" y="25.195" transform="matrix(0.9909120202064514, 0, 0, 0.9749600291252136, 0.9697820544242823, 0.7489929795265198)">=<tspan x="81.7969970703125" dy="1em">​</tspan><tspan x="81.7969970703125" dy="1em">​</tspan></text>
  <text style="white-space: pre; fill: rgb(255, 255, 255); stroke-width: 0px; font-family: Afacad; font-size: 1.7px;" x="-1.565999984741211" y="28.471" transform="matrix(1, 0, 0, 1, -3.552713678800501e-15, 0)"><tspan x="-1.565999984741211" dy="1em">​</tspan><tspan x="-1.565999984741211" dy="1em">​</tspan></text>
</svg>