<?xml version="1.0" encoding="utf-8"?>
<svg viewBox="0 0 107 30" fill="none" xmlns="http://www.w3.org/2000/svg" xmlns:bx="https://boxy-svg.com">
  <defs>
    <style bx:fonts="Afacad">@import url(https://fonts.googleapis.com/css2?family=Afacad%3Aital%2Cwght%400%2C400%3B0%2C500%3B0%2C600%3B0%2C700%3B1%2C400%3B1%2C500%3B1%2C600%3B1%2C700&amp;display=swap);</style>
    <style bx:fonts="Sen">@import url(https://fonts.googleapis.com/css2?family=Sen%3Aital%2Cwght%400%2C400%3B0%2C500%3B0%2C600%3B0%2C700%3B0%2C800&amp;display=swap);</style>
  </defs>
  <path fill-rule="evenodd" clip-rule="evenodd" d="M 4.145 23.401 L 2.901 23.401 C 1.872 23.401 1.036 22.465 1.036 21.311 L 1.036 6.641 C 1.036 5.486 1.872 4.551 2.901 4.551 L 3.94 4.551 C 4.97 4.551 5.805 5.486 5.805 6.641 L 5.805 21.54 C 5.805 22.568 5.062 23.401 4.145 23.401 Z" fill="white" style=""/>
  <path fill-rule="evenodd" clip-rule="evenodd" d="M 28.561 29.814 L 27.318 29.814 C 26.288 29.814 25.453 28.952 25.453 27.888 L 25.453 0.976 C 25.453 -0.087 26.288 -0.95 27.318 -0.95 L 28.356 -0.95 C 29.386 -0.95 30.222 -0.087 30.222 0.976 L 30.222 28.099 C 30.222 29.046 29.478 29.814 28.561 29.814 Z" fill="white" style=""/>
  <path fill-rule="evenodd" clip-rule="evenodd" d="M 12.019 29.912 L 10.776 29.912 C 9.746 29.912 8.911 29.056 8.911 28 L 8.911 1.281 C 8.911 0.225 9.746 -0.631 10.776 -0.631 L 11.815 -0.631 C 12.845 -0.631 13.68 0.225 13.68 1.281 L 13.68 28.21 C 13.68 29.15 12.936 29.912 12.019 29.912 Z" fill="white" style=""/>
  <path fill-rule="evenodd" clip-rule="evenodd" d="M 37.024 23.372 L 35.781 23.372 C 34.751 23.372 33.916 22.421 33.916 21.249 L 33.916 6.343 C 33.916 5.17 34.751 4.22 35.781 4.22 L 36.82 4.22 C 37.85 4.22 38.685 5.17 38.685 6.343 L 38.685 21.481 C 38.685 22.526 37.942 23.372 37.024 23.372 Z" fill="white" style=""/>
  <path fill-rule="evenodd" clip-rule="evenodd" d="M 20.264 34.227 L 19.021 34.227 C 17.991 34.227 17.155 32.922 17.155 31.315 L 17.155 11.459 C 17.155 9.852 17.991 8.549 19.021 8.549 L 20.059 8.549 C 21.089 8.549 21.925 9.852 21.925 11.459 L 21.925 31.634 C 21.925 33.066 21.181 34.227 20.264 34.227 Z" fill="white" style=""/>
  <text style="fill: rgb(214, 214, 214); font-family: Arial, sans-serif; font-size: 3.3px; white-space: pre;" y="10.763999938964844"><tspan x="41.316001892089844" dy="1em">​</tspan></text>
  <text style="fill: rgb(255, 255, 255); font-family: Afacad; font-size: 10px; stroke-miterlimit: 3.81; stroke-width: 0px; text-anchor: middle; white-space: pre;" transform="matrix(1, 0, 0, 1, -7.633160114288329, 1)"><tspan x="56.3" y="15.392">                                  </tspan><tspan style="font-family: Sen;">Aurora escort</tspan><tspan>         </tspan><tspan x="56.29999923706055" dy="1em">​</tspan><tspan x="56.29999923706055" dy="1em">​</tspan></text>
  <text style="white-space: pre; fill: rgb(51, 51, 51); font-family: Arial, sans-serif; font-size: 3.2px;" x="53.685" y="17.908"><tspan x="53.685001373291016" dy="1em">​</tspan></text>
  <text style="white-space: pre; fill: rgb(51, 51, 51); font-family: Arial, sans-serif; font-size: 3.2px;" x="36.426" y="11.631"><tspan x="36.42599868774414" dy="1em">​</tspan><tspan x="36.42599868774414" dy="1em">​</tspan></text>
  <text style="white-space: pre; fill: rgb(51, 51, 51); font-family: Arial, sans-serif; font-size: 3.2px;" x="56.942" y="21.968"><tspan x="56.94200134277344" dy="1em">​</tspan></text>
  <text style="white-space: pre; fill: rgb(51, 51, 51); font-family: Arial, sans-serif; font-size: 3.2px;" x="19.205" y="18.741"><tspan x="19.204999923706055" dy="1em">​</tspan><tspan x="19.204999923706055" dy="1em">​</tspan></text>
  <text style="white-space: pre; fill: rgb(51, 51, 51); font-family: Arial, sans-serif; font-size: 3.2px;" x="18.324" y="13.995"> </text>
  <text style="white-space: pre; fill: rgb(51, 51, 51); font-family: Arial, sans-serif; font-size: 3.2px;" x="82.326" y="13.366"><tspan x="82.32599639892578" dy="1em">​</tspan><tspan x="82.32599639892578" dy="1em">​</tspan></text>
  <text style="white-space: pre; fill: rgb(255, 255, 255); stroke-width: 0px; font-family: Afacad; font-size: 1.5px;" x="106.707" y="0.097"><tspan x="106.70700073242188" dy="1em">​</tspan><tspan x="106.70700073242188" dy="1em">​</tspan></text>
  <text style="white-space: pre; fill: rgb(255, 255, 255); stroke-width: 0px; font-family: Afacad; font-size: 2.3px;" x="72.966" y="19.849"><tspan x="72.96600341796875" dy="1em">​</tspan></text>
  <text style="white-space: pre; fill: rgb(255, 255, 255); stroke-width: 0px; font-family: Afacad; font-size: 2.3px;" x="58.318" y="22.598"><tspan x="58.31800079345703" dy="1em">​</tspan><tspan x="58.31800079345703" dy="1em">​</tspan></text>
  <text style="white-space: pre; fill: rgb(255, 255, 255); stroke-width: 0px; font-family: Afacad; font-size: 2.3px;" x="75.172" y="21.839"> </text>
  <text style="white-space: pre; fill: rgb(255, 255, 255); stroke-width: 0px; font-family: Afacad; font-size: 2.3px;" x="77.158" y="24.797"><tspan x="77.15799713134766" dy="1em">​</tspan><tspan x="77.15799713134766" dy="1em">​</tspan></text>
  <text style="white-space: pre; fill: rgb(255, 255, 255); stroke-width: 0px; font-family: Afacad; font-size: 2.3px;" x="20.31" y="1.484">aurora

</text>
  <text style="white-space: pre; fill: rgb(255, 255, 255); stroke-width: 0px; font-family: Afacad; font-size: 2.3px;" x="6.129" y="-0.768">aurora

</text>
  <text style="white-space: pre; fill: rgb(255, 255, 255); stroke-width: 0px; font-family: Afacad; font-size: 1px;" x="77.518" y="23.031"><tspan x="77.51799774169922" dy="1em">​</tspan><tspan x="77.51799774169922" dy="1em">​</tspan></text>
  <text style="white-space: pre; fill: rgb(255, 255, 255); stroke-width: 0px; font-family: Afacad; font-size: 2.2px;" x="59.488" y="5.206"><tspan x="59.487998962402344" dy="1em">​</tspan><tspan x="59.487998962402344" dy="1em">​</tspan></text>
  <text style="white-space: pre; fill: rgb(255, 255, 255); stroke-width: 0px; font-family: Afacad; font-size: 2.2px;" x="41.903" y="3.786"><tspan x="41.90299987792969" dy="1em">​</tspan><tspan x="41.90299987792969" dy="1em">​</tspan></text>
  <text style="white-space: pre; fill: rgb(255, 255, 255); stroke-width: 0px; font-family: Afacad; font-size: 1.7px;" x="81.797" y="25.195">=<tspan x="81.7969970703125" dy="1em">​</tspan><tspan x="81.7969970703125" dy="1em">​</tspan></text>
</svg>