<svg width="131" height="30" xmlns="http://www.w3.org/2000/svg" fill="none">

 <g>
  <title>Layer 1</title>
  <path id="svg_1" fill="white" d="m3.28652,23.4012l-1.24303,0c-1.02999,0 -1.86527,-0.8386 -1.86527,-1.8726l0,-13.14485c0,-1.03403 0.83528,-1.87258 1.86527,-1.87258l1.03867,0c1.03,0 1.86527,0.83855 1.86527,1.87258l0,13.34995c0,0.9209 -0.74369,1.6675 -1.66091,1.6675z" clip-rule="evenodd" fill-rule="evenodd"/>
  <path id="svg_2" fill="white" d="m29.4848,29.9121l-1.2431,0c-1.03,0 -1.8652,-0.8385 -1.8652,-1.8726l0,-26.16674c0,-1.03403 0.8352,-1.87258 1.8652,-1.87258l1.0387,0c1.03,0 1.8653,0.83855 1.8653,1.87258l0,26.37194c0,0.9208 -0.7437,1.6674 -1.6609,1.6674z" clip-rule="evenodd" fill-rule="evenodd"/>
  <path id="svg_3" fill="white" d="m12.0192,29.9121l-1.243,0c-1.03004,0 -1.86531,-0.8385 -1.86531,-1.8726l0,-26.16674c0,-1.03403 0.83527,-1.87258 1.86531,-1.87258l1.0386,0c1.03,0 1.8653,0.83855 1.8653,1.87258l0,26.37194c0,0.9208 -0.7437,1.6674 -1.6609,1.6674z" clip-rule="evenodd" fill-rule="evenodd"/>
  <path id="svg_4" fill="white" d="m38.2174,23.4012l-1.243,0c-1.03,0 -1.8653,-0.8386 -1.8653,-1.8726l0,-13.14485c0,-1.03403 0.8353,-1.87258 1.8653,-1.87258l1.0387,0c1.03,0 1.8652,0.83855 1.8652,1.87258l0,13.34995c0,0.9209 -0.7437,1.6675 -1.6609,1.6675z" clip-rule="evenodd" fill-rule="evenodd"/>
  <path id="svg_5" fill="white" d="m20.7519,23.9308l-1.2431,0c-1.03,0 -1.8652,-0.8385 -1.8652,-1.8726l0,-12.77174c0,-1.03452 0.8352,-1.87258 1.8652,-1.87258l1.0387,0c1.03,0 1.8653,0.83806 1.8653,1.87258l0,12.97694c0,0.9208 -0.7437,1.6674 -1.6609,1.6674z" clip-rule="evenodd" fill-rule="evenodd"/>
  <text style="cursor: move;" font-weight="bold" transform="matrix(1.26754 0 0 1.34789 -15.7727 0.398062)" stroke="null" xml:space="preserve" text-anchor="start" font-family="'Syne'" font-size="11" stroke-width="0" id="svg_10" y="13.85681" x="48.97658" fill="#ffffff">aurora escort</text>
 </g>
</svg>